<svg width="28" height="28" viewBox="0 0 28 28" fill="none" xmlns="http://www.w3.org/2000/svg">
<g id="Icon">
<path id="Icon_2" fill-rule="evenodd" clip-rule="evenodd" d="M9.33337 1.16669V2.33335V3.50002H18.6667V2.33335V1.16669H21V2.33335V3.50002H24.5H25.6667V4.66669V8.16669V10.5V25.6667V26.8334H24.5H3.50004H2.33337V25.6667V10.5V8.16669V4.66669V3.50002H3.50004H7.00004V2.33335V1.16669H9.33337ZM7.00004 5.83335H4.66671V8.16669H23.3334V5.83335H21H18.6667H9.33337H7.00004ZM23.3334 10.5H4.66671V24.5H23.3334V10.5ZM7.00004 14H8.16671H12.8334H14V15.1667V19.8334V21H12.8334H8.16671H7.00004V19.8334V15.1667V14ZM9.33337 16.3334V18.6667H11.6667V16.3334H9.33337Z" fill="white"/>
</g>
</svg>
