<svg width="35" height="26" viewBox="0 0 35 26" fill="none" xmlns="http://www.w3.org/2000/svg">
<g clip-path="url(#clip0_8588_1790)">
<path d="M2.47727 25.9375H7.96591V12.608L0.125 6.72729V23.5853C0.125 24.8868 1.1796 25.9375 2.47727 25.9375Z" fill="#4285F4"/>
<path d="M26.7842 25.9375H32.2728C33.5744 25.9375 34.6251 24.8829 34.6251 23.5853V6.72729L26.7842 12.608" fill="#34A853"/>
<path d="M26.7842 2.41473V12.6079L34.6251 6.72723V3.59087C34.6251 0.681891 31.3045 -0.976461 28.9796 0.768141" fill="#FBBC04"/>
<path d="M7.96582 12.608V2.41479L17.3749 9.47161L26.784 2.41479V12.608L17.3749 19.6648" fill="#EA4335"/>
<path d="M0.125 3.59087V6.72723L7.96591 12.6079V2.41473L5.77046 0.768141C3.44171 -0.976461 0.125 0.681891 0.125 3.59087Z" fill="#C5221F"/>
</g>
<defs>
<clipPath id="clip0_8588_1790">
<rect width="34.5" height="25.875" fill="white" transform="translate(0.125 0.0625)"/>
</clipPath>
</defs>
</svg>
