<svg width="24" height="24" viewBox="0 0 24 24" fill="none" xmlns="http://www.w3.org/2000/svg">
<g id="Google_Calendar_icon_(2020) 1" clip-path="url(#clip0_8658_522)">
<g id="Group">
<g id="Group_2">
<path id="Vector" d="M8.27525 15.4833C7.80317 15.1643 7.47629 14.6986 7.29785 14.0828L8.39369 13.6312C8.49317 14.0102 8.66681 14.3038 8.91473 14.5122C9.16109 14.7207 9.46109 14.8233 9.81161 14.8233C10.1701 14.8233 10.478 14.7143 10.7353 14.4964C10.9925 14.2785 11.1221 14.0006 11.1221 13.6643C11.1221 13.3202 10.9863 13.039 10.7147 12.8212C10.4432 12.6034 10.1021 12.4943 9.69473 12.4943H9.06161V11.4096H9.62993C9.98045 11.4096 10.2758 11.315 10.5158 11.1255C10.7558 10.936 10.8758 10.677 10.8758 10.347C10.8758 10.0534 10.7684 9.81965 10.5537 9.64445C10.339 9.46925 10.0673 9.38081 9.73733 9.38081C9.41525 9.38081 9.15941 9.46613 8.96993 9.63821C8.78045 9.81029 8.64305 10.0218 8.55629 10.2713L7.47161 9.81977C7.61525 9.41237 7.87901 9.05237 8.26577 8.74133C8.65265 8.43029 9.14681 8.27393 9.74681 8.27393C10.1905 8.27393 10.5899 8.35925 10.9437 8.53133C11.2973 8.70341 11.5753 8.94185 11.7758 9.24497C11.9763 9.54965 12.0758 9.89081 12.0758 10.2696C12.0758 10.6565 11.9827 10.9833 11.7963 11.2517C11.6099 11.5202 11.381 11.7254 11.1094 11.8691V11.9338C11.4679 12.0838 11.7599 12.3128 11.9905 12.6207C12.2194 12.9286 12.3346 13.2965 12.3346 13.726C12.3346 14.1555 12.2257 14.5391 12.0077 14.8755C11.7898 15.2118 11.4883 15.477 11.1062 15.6696C10.7225 15.8622 10.2915 15.9602 9.81305 15.9602C9.25889 15.9617 8.74733 15.8022 8.27525 15.4833Z" fill="white"/>
<path id="Vector_2" d="M15.0006 10.0453L13.8037 10.9153L13.2021 10.0027L15.3606 8.4458H16.188V15.7894H15.0006V10.0453Z" fill="white"/>
<path id="Vector_3" d="M18.3154 24.0001L23.9996 18.3159L21.5995 18.3159L18.3154 18.3159L18.3157 21.532L18.3154 24.0001Z" fill="white" fill-opacity="0.64"/>
<path id="Vector_4" d="M5.6839 21.2209L5.68359 24.0001H18.3152V18.3159H5.68359L5.6839 21.2209Z" fill="white" fill-opacity="0.8"/>
<path id="Vector_5" d="M1.89468 0C0.84792 0 0 0.84792 0 1.89468V18.3157H2.88H5.68416V5.68416H18.3157L18.3158 2.88V0H1.89468Z" fill="white" fill-opacity="0.48"/>
<path id="Vector_6" d="M0 18.3159V22.1054C0 23.1523 0.84792 24.0001 1.89468 24.0001H5.68416V18.3159H0Z" fill="white" fill-opacity="0.96"/>
<path id="Vector_7" d="M18.3154 5.68408V18.3156H23.9996V5.68408L21.1195 5.68404L18.3154 5.68408Z" fill="white" fill-opacity="0.48"/>
<path id="Vector_8" d="M23.9996 5.68416V1.89468C23.9996 0.8478 23.1517 0 22.1049 0H18.3154V5.68416H23.9996Z" fill="white" fill-opacity="0.88"/>
</g>
</g>
</g>
<defs>
<clipPath id="clip0_8658_522">
<rect width="24" height="24" fill="white"/>
</clipPath>
</defs>
</svg>
