<svg width="26" height="25" viewBox="0 0 26 25" fill="none" xmlns="http://www.w3.org/2000/svg">
<path d="M13 8.00781C15.4609 8.00781 17.4922 10.0391 17.4922 12.5C17.4922 15 15.4609 16.9922 13 16.9922C10.5 16.9922 8.50781 15 8.50781 12.5C8.50781 10.0391 10.5 8.00781 13 8.00781ZM13 15.4297C14.6016 15.4297 15.8906 14.1406 15.8906 12.5C15.8906 10.8984 14.6016 9.60938 13 9.60938C11.3594 9.60938 10.0703 10.8984 10.0703 12.5C10.0703 14.1406 11.3984 15.4297 13 15.4297ZM18.7031 7.85156C18.7031 7.26562 18.2344 6.79688 17.6484 6.79688C17.0625 6.79688 16.5938 7.26562 16.5938 7.85156C16.5938 8.4375 17.0625 8.90625 17.6484 8.90625C18.2344 8.90625 18.7031 8.4375 18.7031 7.85156ZM21.6719 8.90625C21.75 10.3516 21.75 14.6875 21.6719 16.1328C21.5938 17.5391 21.2812 18.75 20.2656 19.8047C19.25 20.8203 18 21.1328 16.5938 21.2109C15.1484 21.2891 10.8125 21.2891 9.36719 21.2109C7.96094 21.1328 6.75 20.8203 5.69531 19.8047C4.67969 18.75 4.36719 17.5391 4.28906 16.1328C4.21094 14.6875 4.21094 10.3516 4.28906 8.90625C4.36719 7.5 4.67969 6.25 5.69531 5.23438C6.75 4.21875 7.96094 3.90625 9.36719 3.82812C10.8125 3.75 15.1484 3.75 16.5938 3.82812C18 3.90625 19.25 4.21875 20.2656 5.23438C21.2812 6.25 21.5938 7.5 21.6719 8.90625ZM19.7969 17.6562C20.2656 16.5234 20.1484 13.7891 20.1484 12.5C20.1484 11.25 20.2656 8.51562 19.7969 7.34375C19.4844 6.60156 18.8984 5.97656 18.1562 5.70312C16.9844 5.23438 14.25 5.35156 13 5.35156C11.7109 5.35156 8.97656 5.23438 7.84375 5.70312C7.0625 6.01562 6.47656 6.60156 6.16406 7.34375C5.69531 8.51562 5.8125 11.25 5.8125 12.5C5.8125 13.7891 5.69531 16.5234 6.16406 17.6562C6.47656 18.4375 7.0625 19.0234 7.84375 19.3359C8.97656 19.8047 11.7109 19.6875 13 19.6875C14.25 19.6875 16.9844 19.8047 18.1562 19.3359C18.8984 19.0234 19.5234 18.4375 19.7969 17.6562Z" fill="white"/>
</svg>
