<svg width="35" height="34" viewBox="0 0 35 34" fill="none" xmlns="http://www.w3.org/2000/svg">
<g clip-path="url(#clip0_8588_1797)">
<path d="M8.52467 0.30603H26.7245C31.0009 0.30603 34.4435 3.74869 34.4435 8.02502V26.2249C34.4435 30.5012 31.0009 33.9439 26.7245 33.9439H8.52467C4.24834 33.9439 0.805664 30.5012 0.805664 26.2249V8.02502C0.805664 3.74869 4.24834 0.30603 8.52467 0.30603Z" fill="url(#paint0_linear_8588_1797)"/>
<path d="M8.1756 9.8717C7.99837 9.8717 7.8314 9.90228 7.67337 9.96514L10.8386 13.2238L14.0389 16.5409L14.0973 16.611L14.1907 16.7044L14.2841 16.7978L14.471 16.9964L17.2158 19.8112C17.2615 19.8396 17.3939 19.9623 17.4974 20.014C17.6307 20.0806 17.7751 20.142 17.924 20.1474C18.0847 20.1531 18.2489 20.1071 18.3935 20.0367C18.5018 19.9841 18.55 19.9086 18.6758 19.8112L21.8527 16.5292L25.0646 13.2238L28.1598 10.0352C27.9611 9.92756 27.741 9.8717 27.5057 9.8717H8.1756ZM7.20618 10.2688C6.86864 10.5886 6.65723 11.0695 6.65723 11.612V22.3107C6.65723 22.75 6.79832 23.1491 7.03098 23.4553L7.47481 23.0349L10.7802 19.8229L13.7118 16.9847L13.6534 16.9146L10.4415 13.6092L7.22954 10.2922L7.20618 10.2688ZM28.5802 10.3739L25.4501 13.6092L22.2498 16.9146L22.1914 16.973L25.2398 19.928L28.5452 23.14L28.7438 23.3269C28.9217 23.0413 29.0241 22.6895 29.0241 22.3107V11.612C29.0241 11.1283 28.8564 10.6896 28.5802 10.3739ZM14.0856 17.3701L11.1656 20.2083L7.84857 23.4203L7.42809 23.8291C7.64977 23.9718 7.90203 24.0627 8.1756 24.0627H27.5057C27.8346 24.0627 28.1329 23.9362 28.3817 23.7356L28.1715 23.5254L24.8544 20.3135L21.806 17.3701L19.0612 20.1967C18.9126 20.2951 18.8134 20.4044 18.6683 20.4715C18.4349 20.5794 18.179 20.6707 17.9218 20.6668C17.664 20.6628 17.4111 20.5619 17.1797 20.4481C17.0636 20.391 17.0016 20.3342 16.8654 20.22L14.0856 17.3701Z" fill="white"/>
</g>
<defs>
<linearGradient id="paint0_linear_8588_1797" x1="17.8601" y1="33.8089" x2="17.8929" y2="0.712118" gradientUnits="userSpaceOnUse">
<stop stop-color="#70EFFF"/>
<stop offset="1" stop-color="#5770FF"/>
</linearGradient>
<clipPath id="clip0_8588_1797">
<rect width="33.75" height="33.75" fill="white" transform="translate(0.75 0.25)"/>
</clipPath>
</defs>
</svg>
