<svg width="37" height="36" viewBox="0 0 37 36" fill="none" xmlns="http://www.w3.org/2000/svg">
<g clip-path="url(#clip0_8588_1796)">
<rect x="11.625" y="2.25" width="22.5" height="31.5" rx="2.25" fill="#1066B5"/>
<rect x="11.625" y="2.25" width="22.5" height="31.5" rx="2.25" fill="url(#paint0_linear_8588_1796)"/>
<rect x="11.625" y="5.625" width="11.25" height="11.25" fill="#32A9E7"/>
<rect x="11.625" y="16.875" width="11.25" height="11.25" fill="#167EB4"/>
<rect x="22.875" y="16.875" width="11.25" height="11.25" fill="#32A9E7"/>
<rect x="22.875" y="5.625" width="11.25" height="11.25" fill="#58D9FD"/>
<mask id="mask0_8588_1796" style="mask-type:alpha" maskUnits="userSpaceOnUse" x="9" y="15" width="28" height="19">
<path d="M9.375 15.75H34.125C35.3676 15.75 36.375 16.7574 36.375 18V31.5C36.375 32.7426 35.3676 33.75 34.125 33.75H11.625C10.3824 33.75 9.375 32.7426 9.375 31.5V15.75Z" fill="url(#paint1_linear_8588_1796)"/>
</mask>
<g mask="url(#mask0_8588_1796)">
<path d="M36.375 15.75V20.25H34.125V15.75H36.375Z" fill="#135298"/>
<path d="M36.375 33.75V18L8.25 33.75H36.375Z" fill="url(#paint2_linear_8588_1796)"/>
<path d="M9.375 33.75V18L37.5 33.75H9.375Z" fill="url(#paint3_linear_8588_1796)"/>
</g>
<path d="M9.375 13.5C9.375 11.636 10.886 10.125 12.75 10.125H19.5C21.364 10.125 22.875 11.636 22.875 13.5V27C22.875 28.864 21.364 30.375 19.5 30.375H9.375V13.5Z" fill="black" fill-opacity="0.3"/>
<rect x="0.375" y="7.875" width="20.25" height="20.25" rx="2.25" fill="url(#paint4_linear_8588_1796)"/>
<path d="M16.125 18.0779V17.8909C16.125 14.6499 13.7931 12.375 10.5178 12.375C7.22468 12.375 4.875 14.6655 4.875 17.9221V18.1091C4.875 21.3501 7.20688 23.625 10.5 23.625C13.7753 23.625 16.125 21.3345 16.125 18.0779ZM13.4727 18.1091C13.4727 20.2593 12.2623 21.5526 10.5178 21.5526C8.77334 21.5526 7.54509 20.2282 7.54509 18.0779V17.8909C7.54509 15.7407 8.75554 14.4474 10.5 14.4474C12.2267 14.4474 13.4727 15.7718 13.4727 17.9221V18.1091Z" fill="white"/>
</g>
<defs>
<linearGradient id="paint0_linear_8588_1796" x1="11.625" y1="18" x2="34.125" y2="18" gradientUnits="userSpaceOnUse">
<stop stop-color="#064484"/>
<stop offset="1" stop-color="#0F65B5"/>
</linearGradient>
<linearGradient id="paint1_linear_8588_1796" x1="9.375" y1="30.1154" x2="36.375" y2="30.1154" gradientUnits="userSpaceOnUse">
<stop stop-color="#1B366F"/>
<stop offset="1" stop-color="#2657B0"/>
</linearGradient>
<linearGradient id="paint2_linear_8588_1796" x1="36.375" y1="25.875" x2="9.375" y2="25.875" gradientUnits="userSpaceOnUse">
<stop stop-color="#44DCFD"/>
<stop offset="0.453125" stop-color="#259ED0"/>
</linearGradient>
<linearGradient id="paint3_linear_8588_1796" x1="9.375" y1="25.875" x2="36.375" y2="25.875" gradientUnits="userSpaceOnUse">
<stop stop-color="#259ED0"/>
<stop offset="1" stop-color="#44DCFD"/>
</linearGradient>
<linearGradient id="paint4_linear_8588_1796" x1="0.375" y1="18" x2="20.625" y2="18" gradientUnits="userSpaceOnUse">
<stop stop-color="#064484"/>
<stop offset="1" stop-color="#0F65B5"/>
</linearGradient>
<clipPath id="clip0_8588_1796">
<rect width="36" height="36" fill="white" transform="translate(0.375)"/>
</clipPath>
</defs>
</svg>
