<svg width="168" height="16" viewBox="0 0 168 16" fill="none" xmlns="http://www.w3.org/2000/svg">
<path d="M47.614 15.0751L42.8216 0.614511C42.7598 0.432708 42.5926 0.309082 42.3998 0.309082H36.244C36.0549 0.309082 35.884 0.429072 35.8222 0.614511L30.9899 15.0751C30.8917 15.3624 31.1062 15.6605 31.4117 15.6605H34.0624C39.2256 15.6605 39.251 10.8791 39.251 10.8791H39.3674C39.3674 10.8791 39.3928 15.6605 44.556 15.6605H47.1958C47.4976 15.6605 47.7121 15.3624 47.6176 15.0751H47.614ZM40.9672 8.30115L39.6292 9.63922C39.451 9.81739 39.1637 9.81739 38.9892 9.63922L37.6511 8.30115C37.473 8.12298 37.473 7.83937 37.6511 7.6612L38.9892 6.32313C39.1674 6.14496 39.4546 6.14496 39.6292 6.32313L40.9672 7.6612C41.1454 7.83937 41.1454 8.12298 40.9672 8.30115Z" fill="#0B112E" fill-opacity="0.16"/>
<path d="M0.865234 0.752682C0.865234 0.509066 1.06522 0.309082 1.30883 0.309082H9.28636C13.7805 0.309082 15.6458 1.95258 15.6458 4.73781C15.6458 7.52303 13.5405 8.81747 11.0208 9.01382V9.05745C13.5187 9.27561 14.7477 10.0646 15.275 11.6681L16.4349 15.0715C16.533 15.3587 16.3185 15.6569 16.0167 15.6569H11.0935C10.8971 15.6569 10.7226 15.526 10.6681 15.3369L9.86085 12.5662C9.46452 11.2064 8.74095 10.5482 7.29379 10.5482H6.79565C6.55204 10.5482 6.35205 10.7482 6.35205 10.9918V15.2133C6.35205 15.4569 6.15207 15.6569 5.90845 15.6569H1.30883C1.06522 15.6569 0.865234 15.4569 0.865234 15.2133V0.752682ZM10.2063 6.01043C10.2063 4.89052 9.54815 4.41056 8.12282 4.41056H6.78838C6.54476 4.41056 6.34478 4.61054 6.34478 4.85416V7.19215C6.34478 7.43577 6.54476 7.63575 6.78838 7.63575H8.07918C9.50452 7.63575 10.2063 7.13034 10.2063 6.01406V6.01043Z" fill="#0B112E" fill-opacity="0.16"/>
<path d="M18.1692 0.309082H29.5173C29.761 0.309082 29.9609 0.509066 29.9609 0.752682V3.81425C29.9609 4.05786 29.761 4.25785 29.5173 4.25785H23.6487C23.4051 4.25785 23.2051 4.45783 23.2051 4.70145V5.91953C23.2051 6.16314 23.4051 6.36313 23.6487 6.36313H28.9465C29.1901 6.36313 29.3901 6.56311 29.3901 6.80673V9.16653C29.3901 9.41015 29.1901 9.61013 28.9465 9.61013H23.6487C23.4051 9.61013 23.2051 9.81011 23.2051 10.0537V11.2718C23.2051 11.5154 23.4051 11.7154 23.6487 11.7154H29.5173C29.761 11.7154 29.9609 11.9154 29.9609 12.159V15.2206C29.9609 15.4642 29.761 15.6642 29.5173 15.6642H18.1692C17.9256 15.6642 17.7256 15.4642 17.7256 15.2206V0.752682C17.7256 0.509066 17.9256 0.309082 18.1692 0.309082Z" fill="#0B112E" fill-opacity="0.16"/>
<path d="M48.7051 0.752682C48.7051 0.509066 48.9051 0.309082 49.1487 0.309082H56.0063C61.8603 0.309082 65.0165 3.02886 65.0165 7.98481C65.0165 12.9408 61.8603 15.6605 56.0063 15.6605H49.1487C48.9051 15.6605 48.7051 15.4606 48.7051 15.2169V0.752682ZM59.3406 7.98117C59.3406 5.96316 58.3552 5.08687 56.119 5.08687H54.6319C54.3882 5.08687 54.1883 5.28685 54.1883 5.53047V10.4319C54.1883 10.6755 54.3882 10.8755 54.6319 10.8755H56.119C58.3552 10.8755 59.3406 9.99919 59.3406 7.98117Z" fill="#0B112E" fill-opacity="0.16"/>
<path d="M69.354 9.29743L63.969 0.992662C63.7763 0.698141 63.9908 0.309082 64.3399 0.309082H69.0668C69.2195 0.309082 69.3649 0.389075 69.4449 0.519974L71.8774 4.47601C72.052 4.75599 72.4592 4.75599 72.6337 4.47601L75.0663 0.519974C75.1463 0.389075 75.2881 0.309082 75.4444 0.309082H79.9531C80.3022 0.309082 80.5167 0.698141 80.324 0.992662L74.979 9.30107C74.9317 9.37379 74.9099 9.45742 74.9099 9.54105V15.2169C74.9099 15.4606 74.7099 15.6605 74.4663 15.6605H69.8703C69.6267 15.6605 69.4267 15.4606 69.4267 15.2169V9.54105C69.4267 9.45378 69.4013 9.37015 69.354 9.30107V9.29743Z" fill="#0B112E" fill-opacity="0.16"/>
<path d="M91.4537 5.0905H87.6467C87.4031 5.0905 87.2031 4.89052 87.2031 4.6469V0.752682C87.2031 0.509066 87.4031 0.309082 87.6467 0.309082H101.606C101.849 0.309082 102.049 0.509066 102.049 0.752682V4.6469C102.049 4.89052 101.849 5.0905 101.606 5.0905H97.7986C97.555 5.0905 97.355 5.29049 97.355 5.5341V15.2169C97.355 15.4606 97.155 15.6605 96.9114 15.6605H92.3372C92.0936 15.6605 91.8936 15.4606 91.8936 15.2169V5.5341C91.8936 5.29049 91.6937 5.0905 91.45 5.0905H91.4537Z" fill="#0B112E" fill-opacity="0.16"/>
<path d="M102.642 7.98116C102.642 3.22155 106.325 0 111.412 0C116.499 0 120.204 3.22155 120.204 7.98116C120.204 12.7408 116.52 15.9623 111.412 15.9623C106.303 15.9623 102.642 12.7626 102.642 7.98116ZM114.524 8.00661C114.524 5.92315 113.23 4.78506 111.412 4.78506C109.594 4.78506 108.321 5.92678 108.321 8.00661C108.321 10.0864 109.616 11.1627 111.412 11.1627C113.208 11.1627 114.524 10.021 114.524 8.00661Z" fill="#0B112E" fill-opacity="0.16"/>
<path d="M165.689 0.472656C166.085 0.472656 166.467 0.57083 166.83 0.770813C167.194 0.970797 167.481 1.25441 167.688 1.62529C167.896 1.99617 168.001 2.38523 168.001 2.78883C168.001 3.19243 167.899 3.57422 167.696 3.94146C167.492 4.3087 167.205 4.59232 166.841 4.79593C166.474 4.99955 166.092 5.10136 165.689 5.10136C165.285 5.10136 164.903 4.99955 164.536 4.79593C164.169 4.59232 163.885 4.30507 163.681 3.94146C163.478 3.57422 163.376 3.19243 163.376 2.78883C163.376 2.38523 163.481 1.99617 163.689 1.62529C163.896 1.25441 164.183 0.970797 164.547 0.770813C164.91 0.57083 165.292 0.472656 165.689 0.472656ZM165.692 0.927164C165.372 0.927164 165.07 1.00716 164.776 1.16714C164.485 1.32713 164.252 1.5562 164.085 1.85436C163.918 2.15252 163.834 2.46522 163.834 2.79246C163.834 3.11971 163.918 3.42514 164.081 3.71966C164.245 4.01418 164.474 4.24325 164.769 4.40688C165.063 4.5705 165.372 4.65413 165.692 4.65413C166.012 4.65413 166.325 4.5705 166.619 4.40688C166.914 4.24325 167.143 4.01055 167.307 3.71966C167.47 3.42878 167.554 3.11607 167.554 2.79246C167.554 2.46885 167.47 2.15252 167.303 1.85436C167.136 1.5562 166.903 1.32713 166.612 1.16714C166.318 1.00716 166.012 0.927164 165.696 0.927164H165.692ZM164.645 4.02509V1.56711H165.143C165.612 1.56711 165.874 1.56711 165.928 1.57438C166.092 1.58893 166.223 1.62165 166.314 1.67256C166.405 1.72346 166.481 1.80346 166.543 1.9089C166.605 2.01435 166.634 2.1307 166.634 2.2616C166.634 2.43977 166.576 2.58884 166.459 2.71611C166.343 2.84337 166.179 2.91973 165.972 2.94881C166.048 2.9779 166.103 3.00699 166.143 3.03972C166.183 3.07244 166.238 3.13425 166.31 3.22879C166.328 3.25424 166.39 3.35242 166.492 3.52695L166.783 4.02145H166.168L165.961 3.62149C165.823 3.35242 165.707 3.18516 165.616 3.11607C165.525 3.04699 165.412 3.01063 165.27 3.01063H165.139V4.02145H164.641L164.645 4.02509ZM165.143 2.62884H165.347C165.634 2.62884 165.812 2.61793 165.881 2.59612C165.95 2.5743 166.005 2.5343 166.045 2.47976C166.085 2.42522 166.107 2.35977 166.107 2.29069C166.107 2.2216 166.088 2.15979 166.048 2.10888C166.008 2.05434 165.954 2.01798 165.881 1.99253C165.808 1.97071 165.63 1.95617 165.347 1.95617H165.143V2.62521V2.62884Z" fill="#0B112E" fill-opacity="0.16"/>
<path d="M136.691 4.78145C138.367 4.78145 140.174 4.96689 142.25 5.39231C142.527 5.44685 142.785 5.23959 142.785 4.95962V1.15993C142.785 0.95631 142.647 0.778144 142.447 0.730875C140.323 0.21819 138.407 0.00366211 136.429 0.00366211C130.44 0.00366211 127.153 2.98523 127.153 8.42115C127.153 13.1589 129.389 15.7442 133.138 15.9623C136.978 16.1841 138.352 15.3806 138.916 14.7624V15.1588C138.92 15.3951 139.112 15.5878 139.352 15.5878H142.352C142.592 15.5878 142.785 15.3951 142.785 15.1551V6.85037C142.785 6.62493 142.603 6.44676 142.381 6.44676H134.934C134.709 6.44676 134.531 6.62857 134.531 6.85037V9.27199C134.531 9.49742 134.713 9.67559 134.934 9.67559H137.705V9.84285C137.705 11.29 137.025 11.5736 135.458 11.5736C132.916 11.5736 132.836 10.0574 132.836 8.08663C132.836 5.9159 133.975 4.77418 136.694 4.77418L136.691 4.78145Z" fill="#0B112E" fill-opacity="0.16"/>
<path d="M145.177 8.00289C145.177 3.24328 148.86 0.0217285 153.947 0.0217285C159.034 0.0217285 162.739 3.24328 162.739 8.00289C162.739 12.7625 159.056 15.984 153.947 15.984C148.838 15.984 145.177 12.7843 145.177 8.00289ZM157.063 8.0247C157.063 5.94124 155.769 4.80315 153.951 4.80315C152.133 4.80315 150.86 5.94487 150.86 8.0247C150.86 10.1045 152.154 11.1808 153.951 11.1808C155.747 11.1808 157.063 10.0391 157.063 8.0247Z" fill="#0B112E" fill-opacity="0.16"/>
</svg>
