<svg width="168" height="17" viewBox="0 0 168 17" fill="none" xmlns="http://www.w3.org/2000/svg">
<g id="Group 1">
<g id="Group">
<path id="Vector" d="M47.6135 15.5151L42.8211 1.05445C42.7593 0.87265 42.5921 0.749023 42.3994 0.749023H36.2435C36.0544 0.749023 35.8835 0.869014 35.8217 1.05445L30.9894 15.5151C30.8912 15.8023 31.1057 16.1005 31.4112 16.1005H34.0619C39.2251 16.1005 39.2505 11.3191 39.2505 11.3191H39.3669C39.3669 11.3191 39.3923 16.1005 44.5555 16.1005H47.1953C47.4971 16.1005 47.7116 15.8023 47.6171 15.5151H47.6135ZM40.9667 8.74109L39.6287 10.0792C39.4505 10.2573 39.1633 10.2573 38.9887 10.0792L37.6507 8.74109C37.4725 8.56292 37.4725 8.27931 37.6507 8.10114L38.9887 6.76307C39.1669 6.5849 39.4541 6.5849 39.6287 6.76307L40.9667 8.10114C41.1449 8.27931 41.1449 8.56292 40.9667 8.74109Z" fill="white" fill-opacity="0.16"/>
<path id="Vector_2" d="M0.864746 1.19262C0.864746 0.949007 1.06473 0.749023 1.30835 0.749023H9.28587C13.78 0.749023 15.6453 2.39252 15.6453 5.17775C15.6453 7.96297 13.5401 9.25741 11.0203 9.45376V9.49739C13.5182 9.71555 14.7472 10.5046 15.2745 12.1081L16.4344 15.5114C16.5325 15.7987 16.318 16.0968 16.0162 16.0968H11.093C10.8966 16.0968 10.7221 15.9659 10.6676 15.7769L9.86037 13.0062C9.46403 11.6463 8.74046 10.9882 7.29331 10.9882H6.79516C6.55155 10.9882 6.35156 11.1882 6.35156 11.4318V15.6532C6.35156 15.8969 6.15158 16.0968 5.90797 16.0968H1.30835C1.06473 16.0968 0.864746 15.8969 0.864746 15.6532V1.19262ZM10.2058 6.45037C10.2058 5.33046 9.54766 4.8505 8.12233 4.8505H6.78789C6.54428 4.8505 6.34429 5.05049 6.34429 5.2941V7.63209C6.34429 7.87571 6.54428 8.07569 6.78789 8.07569H8.07869C9.50403 8.07569 10.2058 7.57028 10.2058 6.45401V6.45037Z" fill="white" fill-opacity="0.16"/>
<path id="Vector_3" d="M18.1689 0.749023H29.5171C29.7607 0.749023 29.9607 0.949007 29.9607 1.19262V4.25419C29.9607 4.4978 29.7607 4.69779 29.5171 4.69779H23.6485C23.4049 4.69779 23.2049 4.89777 23.2049 5.14139V6.35947C23.2049 6.60308 23.4049 6.80307 23.6485 6.80307H28.9462C29.1898 6.80307 29.3898 7.00305 29.3898 7.24667V9.60647C29.3898 9.85009 29.1898 10.0501 28.9462 10.0501H23.6485C23.4049 10.0501 23.2049 10.2501 23.2049 10.4937V11.7118C23.2049 11.9554 23.4049 12.1554 23.6485 12.1554H29.5171C29.7607 12.1554 29.9607 12.3553 29.9607 12.599V15.6605C29.9607 15.9041 29.7607 16.1041 29.5171 16.1041H18.1689C17.9253 16.1041 17.7253 15.9041 17.7253 15.6605V1.19262C17.7253 0.949007 17.9253 0.749023 18.1689 0.749023Z" fill="white" fill-opacity="0.16"/>
<path id="Vector_4" d="M48.7043 1.19262C48.7043 0.949007 48.9043 0.749023 49.1479 0.749023H56.0056C61.8596 0.749023 65.0157 3.4688 65.0157 8.42475C65.0157 13.3807 61.8596 16.1005 56.0056 16.1005H49.1479C48.9043 16.1005 48.7043 15.9005 48.7043 15.6569V1.19262ZM59.3398 8.42112C59.3398 6.4031 58.3545 5.52681 56.1183 5.52681H54.6311C54.3875 5.52681 54.1875 5.72679 54.1875 5.97041V10.8718C54.1875 11.1154 54.3875 11.3154 54.6311 11.3154H56.1183C58.3545 11.3154 59.3398 10.4391 59.3398 8.42112Z" fill="white" fill-opacity="0.16"/>
<path id="Vector_5" d="M69.3533 9.73737L63.9683 1.4326C63.7756 1.13808 63.9901 0.749023 64.3392 0.749023H69.066C69.2187 0.749023 69.3642 0.829017 69.4442 0.959915L71.8767 4.91595C72.0512 5.19593 72.4585 5.19593 72.633 4.91595L75.0655 0.959915C75.1455 0.829017 75.2873 0.749023 75.4437 0.749023H79.9524C80.3015 0.749023 80.516 1.13808 80.3233 1.4326L74.9783 9.74101C74.931 9.81373 74.9092 9.89736 74.9092 9.98099V15.6569C74.9092 15.9005 74.7092 16.1005 74.4656 16.1005H69.8696C69.626 16.1005 69.426 15.9005 69.426 15.6569V9.98099C69.426 9.89372 69.4005 9.81009 69.3533 9.74101V9.73737Z" fill="white" fill-opacity="0.16"/>
<g id="Group_2">
<path id="Vector_6" d="M91.4534 5.53045H87.6465C87.4029 5.53045 87.2029 5.33046 87.2029 5.08685V1.19262C87.2029 0.949007 87.4029 0.749023 87.6465 0.749023H101.605C101.849 0.749023 102.049 0.949007 102.049 1.19262V5.08685C102.049 5.33046 101.849 5.53045 101.605 5.53045H97.7984C97.5548 5.53045 97.3548 5.73043 97.3548 5.97405V15.6569C97.3548 15.9005 97.1548 16.1005 96.9112 16.1005H92.337C92.0934 16.1005 91.8934 15.9005 91.8934 15.6569V5.97405C91.8934 5.73043 91.6934 5.53045 91.4498 5.53045H91.4534Z" fill="white" fill-opacity="0.16"/>
<path id="Vector_7" d="M102.642 8.4211C102.642 3.66149 106.325 0.439941 111.412 0.439941C116.499 0.439941 120.204 3.66149 120.204 8.4211C120.204 13.1807 116.52 16.4023 111.412 16.4023C106.303 16.4023 102.642 13.2025 102.642 8.4211ZM114.524 8.44655C114.524 6.36309 113.23 5.225 111.412 5.225C109.594 5.225 108.321 6.36672 108.321 8.44655C108.321 10.5264 109.616 11.6027 111.412 11.6027C113.208 11.6027 114.524 10.4609 114.524 8.44655Z" fill="white" fill-opacity="0.16"/>
</g>
<path id="Vector_8" d="M165.687 0.912598C166.084 0.912598 166.465 1.01077 166.829 1.21075C167.193 1.41074 167.48 1.69435 167.687 2.06523C167.894 2.43611 168 2.82517 168 3.22877C168 3.63237 167.898 4.01416 167.694 4.3814C167.491 4.74864 167.204 5.03226 166.84 5.23588C166.473 5.4395 166.091 5.54131 165.687 5.54131C165.284 5.54131 164.902 5.4395 164.535 5.23588C164.167 5.03226 163.884 4.74501 163.68 4.3814C163.477 4.01416 163.375 3.63237 163.375 3.22877C163.375 2.82517 163.48 2.43611 163.687 2.06523C163.895 1.69435 164.182 1.41074 164.546 1.21075C164.909 1.01077 165.291 0.912598 165.687 0.912598ZM165.691 1.36711C165.371 1.36711 165.069 1.4471 164.775 1.60709C164.484 1.76707 164.251 1.99614 164.084 2.2943C163.917 2.59246 163.833 2.90516 163.833 3.23241C163.833 3.55965 163.917 3.86508 164.08 4.1596C164.244 4.45412 164.473 4.68319 164.767 4.84682C165.062 5.01044 165.371 5.09407 165.691 5.09407C166.011 5.09407 166.324 5.01044 166.618 4.84682C166.913 4.68319 167.142 4.45049 167.305 4.1596C167.469 3.86872 167.553 3.55601 167.553 3.23241C167.553 2.9088 167.469 2.59246 167.302 2.2943C167.134 1.99614 166.902 1.76707 166.611 1.60709C166.316 1.4471 166.011 1.36711 165.695 1.36711H165.691ZM164.644 4.46503V2.00705H165.142C165.611 2.00705 165.873 2.00705 165.927 2.01432C166.091 2.02887 166.222 2.06159 166.313 2.1125C166.404 2.1634 166.48 2.2434 166.542 2.34884C166.604 2.45429 166.633 2.57064 166.633 2.70154C166.633 2.87971 166.574 3.02879 166.458 3.15605C166.342 3.28331 166.178 3.35967 165.971 3.38876C166.047 3.41784 166.102 3.44693 166.142 3.47966C166.182 3.51238 166.236 3.5742 166.309 3.66873C166.327 3.69419 166.389 3.79236 166.491 3.96689L166.782 4.46139H166.167L165.96 4.06143C165.822 3.79236 165.705 3.6251 165.615 3.55602C165.524 3.48693 165.411 3.45057 165.269 3.45057H165.138V4.46139H164.64L164.644 4.46503ZM165.142 3.06878H165.345C165.633 3.06878 165.811 3.05787 165.88 3.03606C165.949 3.01424 166.004 2.97425 166.044 2.9197C166.084 2.86516 166.105 2.79971 166.105 2.73063C166.105 2.66154 166.087 2.59973 166.047 2.54883C166.007 2.49428 165.953 2.45792 165.88 2.43247C165.807 2.41066 165.629 2.39611 165.345 2.39611H165.142V3.06515V3.06878Z" fill="white" fill-opacity="0.16"/>
<path id="Vector_9" d="M136.69 5.22139C138.366 5.22139 140.173 5.40683 142.249 5.83225C142.526 5.88679 142.784 5.67953 142.784 5.39956V1.59987C142.784 1.39625 142.646 1.21809 142.446 1.17082C140.322 0.658132 138.406 0.443604 136.428 0.443604C130.439 0.443604 127.152 3.42517 127.152 8.86109C127.152 13.5989 129.389 16.1841 133.137 16.4023C136.977 16.6241 138.351 15.8205 138.915 15.2024V15.5987C138.919 15.8351 139.111 16.0278 139.351 16.0278H142.351C142.591 16.0278 142.784 15.8351 142.784 15.5951V7.29031C142.784 7.06487 142.602 6.88671 142.38 6.88671H134.934C134.708 6.88671 134.53 7.06851 134.53 7.29031V9.71193C134.53 9.93736 134.712 10.1155 134.934 10.1155H137.704V10.2828C137.704 11.7299 137.024 12.0136 135.457 12.0136C132.916 12.0136 132.836 10.4973 132.836 8.52657C132.836 6.35584 133.974 5.21412 136.693 5.21412L136.69 5.22139Z" fill="white" fill-opacity="0.16"/>
<path id="Vector_10" d="M145.177 8.44283C145.177 3.68322 148.86 0.46167 153.947 0.46167C159.034 0.46167 162.739 3.68322 162.739 8.44283C162.739 13.2024 159.055 16.424 153.947 16.424C148.838 16.424 145.177 13.2243 145.177 8.44283ZM157.063 8.46464C157.063 6.38118 155.768 5.24309 153.95 5.24309C152.132 5.24309 150.86 6.38482 150.86 8.46464C150.86 10.5445 152.154 11.6207 153.95 11.6207C155.747 11.6207 157.063 10.479 157.063 8.46464Z" fill="white" fill-opacity="0.16"/>
</g>
</g>
</svg>
