<svg width="24" height="24" viewBox="0 0 24 24" fill="none" xmlns="http://www.w3.org/2000/svg">
<g id="whatsapp">
<path id="icon" d="M19.3125 4.59375C21.2812 6.5625 22.5 9.14062 22.5 11.9531C22.5 17.6719 17.7188 22.3594 11.9531 22.3594C10.3452 22.3594 8.7776 21.9565 7.32497 21.2628C7.10395 21.1572 6.85332 21.1274 6.61606 21.1882L3.15992 22.0744C2.41824 22.2646 1.74673 21.5847 1.94601 20.8454L2.84527 17.5095C2.91433 17.2533 2.87676 16.9812 2.7533 16.7464C1.98584 15.2865 1.54688 13.6363 1.54688 11.9062C1.54688 6.1875 6.23438 1.5 11.9531 1.5C14.7656 1.5 17.3906 2.625 19.3125 4.59375ZM11.9531 20.5781C16.7344 20.5781 20.7188 16.6875 20.7188 11.9531C20.7188 9.60938 19.7344 7.45312 18.0938 5.8125C16.4531 4.17188 14.2969 3.28125 12 3.28125C7.21875 3.28125 3.32812 7.17188 3.32812 11.9062C3.32812 13.5469 3.79688 15.1406 4.64062 16.5469C4.78883 16.7544 4.8351 17.0178 4.76649 17.2634L4.10279 19.6387C4.05059 19.8255 4.22184 19.998 4.40906 19.9472L6.93941 19.2604C7.14669 19.2042 7.36817 19.2402 7.54688 19.3594C8.90625 20.1562 10.4062 20.5781 11.9531 20.5781ZM16.7344 14.1094C16.8522 14.18 16.9581 14.227 17.0403 14.2742C17.175 14.3514 17.2537 14.5072 17.2605 14.6623C17.2704 14.8882 17.2182 15.2515 17.0625 15.6562C16.8281 16.2656 15.7969 16.8281 15.3281 16.875C14.4844 17.0156 13.8281 16.9688 12.1875 16.2188C9.72764 15.1645 8.09103 12.7931 7.77913 12.3832C7.75048 12.3455 7.72041 12.3098 7.69264 12.2715C7.4694 11.9636 6.70312 10.8268 6.70312 9.60938C6.70312 8.34375 7.35938 7.73438 7.59375 7.45312C7.82812 7.17188 8.10938 7.125 8.29688 7.125C8.4375 7.125 8.625 7.125 8.76562 7.125C8.95312 7.125 9.14062 7.07812 9.375 7.59375C9.5625 8.10938 10.125 9.375 10.1719 9.51562C10.2188 9.65625 10.2656 9.79688 10.1719 9.98438C9.70312 10.9688 9.14062 10.9219 9.42188 11.3906C10.4531 13.125 11.4375 13.7344 12.9844 14.4844C13.1669 14.5939 13.2925 14.5897 13.4277 14.5161C13.5109 14.4708 13.5757 14.3991 13.6348 14.325C13.8361 14.0728 14.2246 13.6049 14.3438 13.4062C14.5312 13.125 14.7188 13.1719 14.9531 13.2656C15.1875 13.3594 16.4531 13.9688 16.7344 14.1094Z" fill="white"/>
</g>
</svg>
