<svg width="25" height="26" viewBox="0 0 25 26" fill="none" xmlns="http://www.w3.org/2000/svg">
<path d="M22.6953 7.88281C23.1641 9.52344 23.1641 13.0391 23.1641 13.0391C23.1641 13.0391 23.1641 16.5156 22.6953 18.1953C22.4609 19.1328 21.7188 19.8359 20.8203 20.0703C19.1406 20.5 12.5 20.5 12.5 20.5C12.5 20.5 5.82031 20.5 4.14062 20.0703C3.24219 19.8359 2.5 19.1328 2.26562 18.1953C1.79688 16.5156 1.79688 13.0391 1.79688 13.0391C1.79688 13.0391 1.79688 9.52344 2.26562 7.88281C2.5 6.94531 3.24219 6.20312 4.14062 5.96875C5.82031 5.5 12.5 5.5 12.5 5.5C12.5 5.5 19.1406 5.5 20.8203 5.96875C21.7188 6.20312 22.4609 6.94531 22.6953 7.88281ZM10.3125 16.2031L15.8594 13.0391L10.3125 9.875V16.2031Z" fill="black" fill-opacity="0.56"/>
</svg>
